<mxfile host="app.diagrams.net" agent="Mozilla/5.0 (Windows NT 10.0; Win64; x64) AppleWebKit/537.36 (KHTML, like Gecko) Chrome/140.0.0.0 Safari/537.36" version="28.2.5">
  <diagram name="Page-1" id="3pftOQPsZ4v80Mipi9X5">
    <mxGraphModel dx="1896" dy="755" grid="1" gridSize="10" guides="1" tooltips="1" connect="1" arrows="1" fold="1" page="1" pageScale="1" pageWidth="827" pageHeight="1169" math="0" shadow="0">
      <root>
        <mxCell id="0" />
        <mxCell id="1" parent="0" />
        <mxCell id="a4tCJnRa7qCzZtoUwaEh-1" value="" style="ellipse;whiteSpace=wrap;html=1;aspect=fixed;" vertex="1" parent="1">
          <mxGeometry x="80" y="60" width="650" height="650" as="geometry" />
        </mxCell>
        <mxCell id="a4tCJnRa7qCzZtoUwaEh-2" value="" style="ellipse;whiteSpace=wrap;html=1;aspect=fixed;" vertex="1" parent="1">
          <mxGeometry x="148.75" y="180" width="512.5" height="512.5" as="geometry" />
        </mxCell>
        <mxCell id="a4tCJnRa7qCzZtoUwaEh-5" value="" style="ellipse;whiteSpace=wrap;html=1;aspect=fixed;" vertex="1" parent="1">
          <mxGeometry x="212.185" y="280" width="385.63" height="385.63" as="geometry" />
        </mxCell>
        <mxCell id="a4tCJnRa7qCzZtoUwaEh-6" value="" style="ellipse;whiteSpace=wrap;html=1;aspect=fixed;" vertex="1" parent="1">
          <mxGeometry x="262.185" y="360" width="285.63" height="285.63" as="geometry" />
        </mxCell>
      </root>
    </mxGraphModel>
  </diagram>
</mxfile>
